<svg width="26" height="21" viewBox="0 0 26 21" fill="none" xmlns="http://www.w3.org/2000/svg">
<g clip-path="url(#clip0_16130_290)">
<path d="M6.85243 16.209C5.66753 16.209 4.70703 17.1696 4.70703 18.3544C4.70703 19.5393 5.66758 20.4998 6.85243 20.4998C8.03733 20.4998 8.99783 19.5393 8.99783 18.3544C8.99787 17.1696 8.03733 16.209 6.85243 16.209ZM6.85243 19.5463C6.19417 19.5463 5.66055 19.0127 5.66055 18.3545C5.66055 17.6962 6.19417 17.1626 6.85243 17.1626C7.5107 17.1626 8.04431 17.6962 8.04431 18.3545C8.04435 19.0127 7.5107 19.5463 6.85243 19.5463Z" fill="#181D19"/>
<path d="M15.911 16.209C14.7261 16.209 13.7656 17.1696 13.7656 18.3544C13.7656 19.5393 14.7262 20.4998 15.911 20.4998C17.0959 20.4998 18.0564 19.5393 18.0564 18.3544C18.0564 17.1696 17.0959 16.209 15.911 16.209ZM15.911 19.5463C15.2527 19.5463 14.7191 19.0127 14.7191 18.3545C14.7191 17.6962 15.2527 17.1626 15.911 17.1626C16.5693 17.1626 17.1029 17.6962 17.1029 18.3545C17.1029 19.0127 16.5693 19.5463 15.911 19.5463Z" fill="#181D19"/>
<path d="M20.7498 3.69432C20.6506 3.58587 20.5147 3.51797 20.3684 3.5036L4.84994 3.28906L4.42086 1.97796C4.11858 1.1015 3.29782 0.50981 2.37077 0.5H0.773635C0.51032 0.5 0.296875 0.713445 0.296875 0.97676C0.296875 1.24007 0.51032 1.45352 0.773635 1.45352H2.37077C2.88914 1.46497 3.3456 1.79782 3.51501 2.28786L6.54244 11.4178L6.30407 11.9661C6.0382 12.6516 6.11805 13.4233 6.51861 14.0399C6.91534 14.6456 7.58278 15.0194 8.30647 15.0411H17.5795C17.8428 15.0411 18.0562 14.8277 18.0562 14.5644C18.0562 14.3011 17.8428 14.0876 17.5795 14.0876H8.30643C7.89775 14.0774 7.52154 13.8624 7.30522 13.5155C7.09132 13.1728 7.04739 12.7507 7.18606 12.3713L7.37677 11.9422L17.4126 10.8933C18.5149 10.7719 19.4217 9.97013 19.6772 8.89091L20.8214 4.09949C20.873 3.96152 20.8456 3.80634 20.7498 3.69432ZM18.7475 8.67641C18.5927 9.37113 18.0029 9.88358 17.2934 9.93983L7.37677 10.9649L5.15983 4.24258L19.7725 4.45712L18.7475 8.67641Z" fill="#181D19"/>
<path d="M21.2969 8.5C23.506 8.5 25.2969 6.70914 25.2969 4.5C25.2969 2.29086 23.506 0.5 21.2969 0.5C19.0877 0.5 17.2969 2.29086 17.2969 4.5C17.2969 6.70914 19.0877 8.5 21.2969 8.5Z" fill="#DC2825"/>
</g>
<defs>
<clipPath id="clip0_16130_290">
<rect width="25" height="20" fill="white" transform="translate(0.296875 0.5)"/>
</clipPath>
</defs>
</svg>
