<svg width="92" height="20" viewBox="0 0 92 20" fill="none" xmlns="http://www.w3.org/2000/svg">
<path d="M3.88783 1.42977V12.9478C3.88783 14.3171 4.24316 15.3485 4.95383 16.0418C5.68183 16.7351 6.68716 17.0818 7.96983 17.0818C9.26983 17.0818 10.2751 16.7351 10.9858 16.0418C11.7138 15.3485 12.0778 14.3171 12.0778 12.9478V1.42977H15.0418V12.8958C15.0418 14.3691 14.7211 15.6171 14.0798 16.6398C13.4385 17.6625 12.5805 18.4251 11.5058 18.9278C10.4311 19.4305 9.24383 19.6818 7.94383 19.6818C6.64383 19.6818 5.4565 19.4305 4.38183 18.9278C3.3245 18.4251 2.48383 17.6625 1.85983 16.6398C1.23583 15.6171 0.923828 14.3691 0.923828 12.8958V1.42977H3.88783ZM21.865 1.42977V19.4998H18.901V1.42977H21.865ZM26.9524 19.6818C26.4151 19.6818 25.9644 19.4998 25.6004 19.1358C25.2364 18.7718 25.0544 18.3211 25.0544 17.7838C25.0544 17.2465 25.2364 16.7958 25.6004 16.4318C25.9644 16.0678 26.4151 15.8858 26.9524 15.8858C27.4724 15.8858 27.9144 16.0678 28.2784 16.4318C28.6424 16.7958 28.8244 17.2465 28.8244 17.7838C28.8244 18.3211 28.6424 18.7718 28.2784 19.1358C27.9144 19.4998 27.4724 19.6818 26.9524 19.6818ZM31.0399 12.2718C31.0399 10.8331 31.3346 9.55906 31.9239 8.44977C32.5306 7.34044 33.3453 6.48244 34.3679 5.87577C35.4079 5.25177 36.5606 4.93977 37.8259 4.93977C38.7619 4.93977 39.6806 5.14777 40.5819 5.56377C41.5006 5.96244 42.2286 6.49977 42.7659 7.17577V0.259766H45.7559V19.4998H42.7659V17.3418C42.2806 18.0351 41.6046 18.6071 40.7379 19.0578C39.8886 19.5085 38.9093 19.7338 37.7999 19.7338C36.5519 19.7338 35.4079 19.4218 34.3679 18.7978C33.3453 18.1565 32.5306 17.2725 31.9239 16.1458C31.3346 15.0018 31.0399 13.7105 31.0399 12.2718ZM42.7659 12.3238C42.7659 11.3358 42.5579 10.4778 42.1419 9.74977C41.7433 9.02177 41.2146 8.4671 40.5559 8.08577C39.8973 7.70444 39.1866 7.51377 38.4239 7.51377C37.6613 7.51377 36.9506 7.70444 36.2919 8.08577C35.6333 8.44977 35.0959 8.99577 34.6799 9.72377C34.2813 10.4345 34.0819 11.2838 34.0819 12.2718C34.0819 13.2598 34.2813 14.1265 34.6799 14.8718C35.0959 15.6171 35.6333 16.1891 36.2919 16.5878C36.9679 16.9691 37.6786 17.1598 38.4239 17.1598C39.1866 17.1598 39.8973 16.9691 40.5559 16.5878C41.2146 16.2065 41.7433 15.6518 42.1419 14.9238C42.5579 14.1785 42.7659 13.3118 42.7659 12.3238ZM62.779 11.9858C62.779 12.5231 62.7444 13.0085 62.675 13.4418H51.729C51.8157 14.5858 52.2404 15.5045 53.003 16.1978C53.7657 16.8911 54.7017 17.2378 55.811 17.2378C57.4057 17.2378 58.5324 16.5705 59.191 15.2358H62.389C61.9557 16.5531 61.167 17.6365 60.023 18.4858C58.8964 19.3178 57.4924 19.7338 55.811 19.7338C54.4417 19.7338 53.211 19.4305 52.119 18.8238C51.0444 18.1998 50.195 17.3331 49.571 16.2238C48.9644 15.0971 48.661 13.7971 48.661 12.3238C48.661 10.8505 48.9557 9.55906 49.545 8.44977C50.1517 7.3231 50.9924 6.45644 52.067 5.84977C53.159 5.2431 54.407 4.93977 55.811 4.93977C57.163 4.93977 58.3677 5.23444 59.425 5.82377C60.4824 6.4131 61.3057 7.2451 61.895 8.31977C62.4844 9.3771 62.779 10.5991 62.779 11.9858ZM59.685 11.0498C59.6677 9.95777 59.2777 9.08244 58.515 8.42377C57.7524 7.7651 56.8077 7.43577 55.681 7.43577C54.6584 7.43577 53.783 7.7651 53.055 8.42377C52.327 9.06509 51.8937 9.94047 51.755 11.0498H59.685ZM70.8959 19.7338C69.7692 19.7338 68.7552 19.5345 67.8539 19.1358C66.9699 18.7198 66.2679 18.1651 65.7479 17.4718C65.2279 16.7611 64.9506 15.9725 64.9159 15.1058H67.9839C68.0359 15.7125 68.3219 16.2238 68.8419 16.6398C69.3792 17.0385 70.0466 17.2378 70.8439 17.2378C71.6759 17.2378 72.3172 17.0818 72.7679 16.7698C73.2359 16.4405 73.4699 16.0245 73.4699 15.5218C73.4699 14.9845 73.2099 14.5858 72.6899 14.3258C72.1872 14.0658 71.3812 13.7798 70.2719 13.4678C69.1972 13.1731 68.3219 12.8871 67.6459 12.6098C66.9699 12.3325 66.3806 11.9078 65.8779 11.3358C65.3926 10.7638 65.1499 10.0098 65.1499 9.07377C65.1499 8.3111 65.3752 7.61777 65.8259 6.99377C66.2766 6.35244 66.9179 5.84977 67.7499 5.48577C68.5992 5.12177 69.5699 4.93977 70.6619 4.93977C72.2912 4.93977 73.5999 5.35577 74.5879 6.18777C75.5932 7.00244 76.1306 8.12044 76.1999 9.54177H73.2359C73.1839 8.90044 72.9239 8.3891 72.4559 8.00777C71.9879 7.62644 71.3552 7.43577 70.5579 7.43577C69.7779 7.43577 69.1799 7.5831 68.7639 7.87777C68.3479 8.17244 68.1399 8.56244 68.1399 9.04777C68.1399 9.4291 68.2786 9.74977 68.5559 10.0098C68.8332 10.2698 69.1712 10.4778 69.5699 10.6338C69.9686 10.7725 70.5579 10.9545 71.3379 11.1798C72.3779 11.4571 73.2272 11.7431 73.8859 12.0378C74.5619 12.3151 75.1426 12.7311 75.6279 13.2858C76.1132 13.8405 76.3646 14.5771 76.3819 15.4958C76.3819 16.3105 76.1566 17.0385 75.7059 17.6798C75.2552 18.3211 74.6139 18.8238 73.7819 19.1878C72.9672 19.5518 72.0052 19.7338 70.8959 19.7338ZM85.2526 12.3498L91.8566 19.4998H87.8526L82.5486 13.3378V19.4998H79.5846V0.259766H82.5486V11.4398L87.7486 5.17377H91.8566L85.2526 12.3498Z" fill="#333333"/>
</svg>
